<svg xmlns="http://www.w3.org/2000/svg" viewBox="0 0 64 64">
  <defs>
    <linearGradient id="g" x1="0" x2="1" y1="0" y2="1">
      <stop offset="0" stop-color="#1e61ed"/>
      <stop offset="0.55" stop-color="#3a3dfc"/>
      <stop offset="1" stop-color="#7e1bf1"/>
    </linearGradient>
  </defs>
  <rect width="64" height="64" rx="14" fill="#081040"/>
  <path d="M8 38c6-10 11-10 15-3s8 8 12 2" fill="none" stroke="url(#g)" stroke-width="4" stroke-linecap="round"/>
  <path d="M34 25c2-7 13-8 16-3 2 4-3 7-8 7s-10-1-8-4z" fill="#9fb4ff"/>
  <path d="M35 38c2 5 11 6 14 2 2-3-2-6-7-6s-9 1-7 4z" fill="#7e5cf5"/>
  <circle cx="53" cy="23" r="3.2" fill="#c02efd"/>
  <circle cx="58" cy="17" r="2.4" fill="#fe8be4"/>
</svg>
